<svg width="24" height="24" viewBox="0 0 24 24" fill="currentColor" xmlns="http://www.w3.org/2000/svg">
  <path d="M12 0C5.37 0 0 5.373 0 12c0 5.303 3.438 9.8 8.205 11.387.6.113.82-.258.82-.577v-2.234c-3.338.726-4.033-1.416-4.033-1.416-.546-1.387-1.333-1.757-1.333-1.757-1.089-.745.084-.73.084-.73 1.205.085 1.84 1.236 1.84 1.236 1.07 1.834 2.809 1.304 3.495.997.108-.774.418-1.304.76-1.603-2.665-.304-5.466-1.332-5.466-5.93 0-1.31.468-2.382 1.235-3.222-.124-.303-.536-1.524.117-3.176 0 0 1.008-.322 3.303 1.23.957-.266 1.983-.399 3.003-.404 1.02.005 2.047.138 3.006.404 2.292-1.552 3.297-1.23 3.297-1.23.655 1.652.243 2.873.12 3.176.77.84 1.235 1.912 1.235 3.222 0 4.61-2.803 5.624-5.475 5.921.43.37.81 1.102.81 2.222v3.293c0 .319.216.694.825.576C20.565 21.796 24 17.297 24 12c0-6.627-5.373-12-12-12z"></path>
</svg>
